# xmcd
#
# Track frame offsets:
#	150
#	20079
#	34024
#	45122
#	63070
#	82254
#	98434
#	116254
#	128764
#	140855
#	152907
#	173250
#	190408
#	203637
#	220464
#	235036
#	250623
#	265097
#	276274
#	294096
#	317425
#	335742
#
# Disc length: 4632 seconds
#
# Revision: 1
# Processed by: cddbd v1.5.1PL2 Copyright (c) Steve Scherf et al.
# Submitted via: audiograbber 1.83.01
#
DISCID=2c121616
DTITLE=Top Tunes - TT101
DYEAR=1900
DGENRE=
TTITLE0=Jackson, Alan - Between The Devil And Me
TTITLE1=Jackson, Alan - Chasin' The Neon Rainbow
TTITLE2=Jackson, Alan - Chattahoochie
TTITLE3=Jackson, Alan - Drive (For Daddy Gene)
TTITLE4=Jackson, Alan - Gone Country
TTITLE5=Jackson, Alan - Here In The Real World
TTITLE6=Jackson, Alan - I'll Go On Loving You
TTITLE7=Jackson, Alan - It Must Be Love
TTITLE8=Jackson, Alan - It's Alright To Be A Redneck
TTITLE9=Jackson, Alan - Little Bitty
TTITLE10=Jackson, Alan - Little Man
TTITLE11=Jackson, Alan - Livin' On Love
TTITLE12=Jackson, Alan - Love's Got A Hold On You
TTITLE13=Jackson, Alan - Midnight In Montgomery
TTITLE14=Jackson, Alan - Pop A Top
TTITLE15=Jackson, Alan - Right On The Money
TTITLE16=Jackson, Alan - Summertime Blues
TTITLE17=Jackson, Alan - Tall Tall Trees
TTITLE18=Jackson, Alan - Where I Come From
TTITLE19=Jackson, Alan - Where Were You When The World Stopped Turning
TTITLE20=Jackson, Alan - Who's Cheatin' Who
TTITLE21=Jackson, Alan - WWW.Memory
EXTD=
EXTT0=
EXTT1=
EXTT2=
EXTT3=
EXTT4=
EXTT5=
EXTT6=
EXTT7=
EXTT8=
EXTT9=
EXTT10=
EXTT11=
EXTT12=
EXTT13=
EXTT14=
EXTT15=
EXTT16=
EXTT17=
EXTT18=
EXTT19=
EXTT20=
EXTT21=
PLAYORDER=
